<?xml version="1.0" standalone="no"?>
<!DOCTYPE svg PUBLIC "-//W3C//DTD SVG 20010904//EN"
 "http://www.w3.org/TR/2001/REC-SVG-20010904/DTD/svg10.dtd">
<svg version="1.0" xmlns="http://www.w3.org/2000/svg"
 width="728.000000pt" height="596.000000pt" viewBox="0 0 728.000000 596.000000"
 preserveAspectRatio="xMidYMid meet">

<g transform="translate(0.000000,596.000000) scale(0.100000,-0.100000)"
fill="#000000" stroke="none">
<path d="M3390 5873 c-650 -69 -1178 -293 -1654 -703 -462 -397 -796 -959
-930 -1561 -52 -239 -61 -324 -61 -629 0 -250 3 -303 23 -430 103 -639 376
-1176 831 -1630 438 -436 995 -717 1614 -811 172 -27 508 -36 683 -20 358 34
687 124 999 275 928 448 1539 1330 1636 2360 16 175 7 511 -20 683 -119 780
-535 1464 -1171 1924 -410 297 -870 474 -1385 534 -118 14 -466 19 -565 8z
m653 -253 c576 -88 1103 -360 1512 -781 399 -411 642 -907 732 -1496 21 -139
24 -555 5 -693 -45 -315 -131 -597 -263 -863 -322 -644 -888 -1129 -1578
-1351 -388 -125 -834 -157 -1251 -90 -94 15 -302 64 -350 82 -14 5 -31 7 -37
5 -7 -3 -13 0 -13 5 0 5 -12 13 -27 17 -60 15 -216 81 -346 147 -614 311
-1094 865 -1316 1519 -89 261 -130 497 -138 794 -15 556 134 1077 442 1540
371 557 921 948 1573 1116 96 25 301 59 437 73 108 11 485 -3 618 -24z"/>
<path d="M3633 5493 c6 -33 3 -41 -18 -57 -34 -26 -31 -36 11 -36 31 0 37 -4
51 -37 l15 -38 19 38 c16 30 25 37 49 37 35 0 38 10 9 36 -17 15 -20 26 -15
56 7 43 5 44 -30 21 -24 -15 -28 -15 -61 1 l-36 17 6 -38z"/>
<path d="M4694 5146 c-198 -72 -399 -195 -629 -385 -115 -95 -353 -328 -371
-363 -20 -38 -42 -41 -131 -17 -55 15 -119 23 -218 26 -123 5 -151 3 -219 -16
-83 -23 -138 -48 -201 -91 -37 -26 -49 -28 -170 -34 -325 -14 -705 -145 -1028
-356 -59 -38 -112 -70 -116 -70 -11 0 -35 -29 -29 -35 11 -11 286 -77 473
-114 232 -46 393 -71 459 -71 31 0 46 -4 46 -13 0 -7 18 -33 41 -57 57 -63
115 -150 152 -228 46 -99 48 -177 7 -302 -90 -273 -125 -481 -117 -700 8 -215
51 -358 155 -518 22 -34 54 -96 71 -136 35 -84 131 -443 131 -490 0 -42 -33
-175 -65 -264 -24 -68 -25 -76 -13 -120 l14 -47 24 65 c103 282 271 501 458
598 44 23 83 42 86 42 20 0 -2 -24 -56 -61 -100 -67 -155 -118 -212 -193 -89
-117 -166 -291 -196 -443 -6 -32 -14 -66 -16 -75 -5 -16 4 -18 82 -18 85 0 87
1 125 35 22 19 42 35 47 35 16 0 30 -16 33 -39 3 -19 13 -27 39 -34 44 -12
443 -2 530 13 119 20 120 22 60 94 -22 26 -40 52 -40 56 0 30 85 16 181 -30
59 -28 89 -36 89 -26 0 3 -12 33 -27 68 -53 124 -125 214 -223 281 -57 38 -54
36 -48 43 9 8 110 -45 104 -55 -3 -5 4 -17 17 -27 l22 -19 -19 23 c-11 12 -14
22 -9 22 6 0 42 -33 81 -74 51 -55 82 -101 118 -175 64 -130 80 -134 119 -23
120 332 310 579 530 683 111 53 115 34 9 -35 -216 -140 -348 -334 -429 -631
-14 -49 -25 -93 -25 -97 0 -4 71 -6 158 -5 137 2 161 5 190 22 47 28 50 56 13
113 -29 46 -37 77 -33 133 1 15 29 64 63 110 64 90 166 286 198 384 42 128 54
219 48 369 -6 159 -21 240 -77 408 -112 336 -282 573 -763 1062 -91 93 -168
174 -170 180 -3 7 1 20 9 31 31 42 4 171 -54 253 l-22 30 32 11 32 11 -33 24
c-25 19 -29 25 -16 30 9 3 25 6 34 6 24 0 79 55 120 118 29 46 37 52 84 62
112 24 245 125 361 274 94 120 151 212 246 396 47 91 98 187 114 214 32 52 38
114 15 142 -20 24 -89 54 -124 53 -16 0 -71 -15 -121 -33z m159 -57 c29 -15
26 -12 37 -47 l8 -31 -26 17 c-65 43 -227 9 -369 -76 -86 -52 -429 -306 -563
-416 -127 -105 -66 -42 117 120 268 237 358 306 495 375 121 62 247 86 301 58z
m-2068 -858 c18 -7 16 -10 -15 -26 -19 -9 -43 -24 -52 -33 -15 -12 -20 -12
-33 -2 -56 46 -434 -63 -819 -236 -66 -30 -121 -52 -124 -50 -5 6 338 178 458
228 124 53 243 93 331 113 69 15 222 18 254 6z m733 -87 c52 -36 68 -121 31
-168 -26 -34 -45 -33 -123 6 -62 30 -65 33 -59 62 13 70 54 116 103 116 14 0
36 -7 48 -16z m-798 -249 c39 -41 48 -42 92 -15 19 11 50 20 73 20 l40 -1 -45
-39 c-114 -99 -110 -94 -110 -150 0 -50 2 -54 60 -114 63 -66 83 -102 28 -49
-62 58 -95 66 -129 31 -20 -21 -21 -21 -14 -3 51 135 46 215 -21 293 -31 37
-38 62 -15 62 4 0 22 -16 41 -35z"/>
<path d="M2896 4974 c5 -30 2 -40 -22 -65 l-28 -29 37 0 c32 0 39 -5 55 -37
l19 -37 18 37 c15 32 22 37 51 37 41 0 42 6 8 32 -22 18 -25 25 -19 60 l7 40
-33 -17 c-30 -16 -35 -16 -66 -1 l-34 16 7 -36z"/>
<path d="M5135 4569 c-135 -21 -280 -90 -380 -181 -36 -33 -64 -62 -62 -64 2
-2 35 3 73 11 89 19 137 19 232 -1 233 -47 419 -230 467 -459 43 -204 -16
-397 -164 -546 -75 -74 -196 -149 -242 -149 -11 0 -19 -4 -19 -9 0 -16 149
-34 243 -28 181 11 328 78 462 212 85 84 133 161 172 274 119 338 -42 718
-371 876 -121 58 -286 84 -411 64z"/>
<path d="M4764 3835 c6 -32 4 -41 -20 -66 l-28 -29 30 0 c38 0 50 -9 64 -45
l12 -30 15 30 c20 38 31 45 67 45 l30 0 -28 29 c-24 25 -27 35 -22 65 l7 36
-36 -17 c-34 -16 -37 -16 -67 1 l-31 19 7 -38z"/>
<path d="M1306 3600 c-26 -17 -32 -17 -57 -4 -39 20 -42 18 -34 -17 6 -25 2
-36 -21 -60 l-28 -29 25 0 c28 0 49 -14 73 -50 9 -13 16 -19 16 -12 0 23 48
62 76 62 l28 0 -28 29 c-23 24 -26 34 -21 65 4 20 6 36 4 35 -2 0 -17 -9 -33
-19z"/>
<path d="M1978 2932 c3 -33 0 -42 -22 -60 l-26 -20 39 -7 c31 -5 42 -13 51
-36 16 -37 25 -37 38 0 8 22 18 30 47 35 l37 7 -25 27 c-20 21 -24 34 -20 61
5 31 4 33 -13 26 -22 -10 -61 -10 -89 -1 -19 7 -20 4 -17 -32z"/>
<path d="M5773 2765 c5 -32 2 -41 -19 -57 -29 -23 -23 -38 16 -38 22 0 31 -7
42 -30 16 -37 23 -38 40 -2 10 20 22 28 46 30 37 4 40 12 11 38 -16 15 -20 27
-16 56 6 43 6 43 -33 23 -27 -14 -33 -14 -61 1 l-32 16 6 -37z"/>
<path d="M5061 1848 c1 -234 -56 -422 -200 -667 -35 -58 -33 -71 19 -115 68
-57 152 -57 220 0 28 25 33 25 78 14 124 -32 238 74 217 201 -6 32 -4 39 10
39 29 0 93 39 115 71 52 72 43 166 -21 228 -35 34 -36 38 -23 61 27 49 35 98
24 140 -31 114 -157 167 -259 109 l-41 -23 -23 22 c-22 20 -86 52 -106 52 -6
0 -10 -53 -10 -132z"/>
<path d="M2174 1876 c103 -74 142 -112 232 -218 150 -180 262 -412 333 -696
31 -119 64 -299 76 -407 6 -52 9 -61 27 -61 18 0 19 5 14 48 -6 45 -5 48 16
45 19 -2 24 5 36 59 l15 62 -42 133 c-155 489 -384 836 -682 1034 -99 66 -115
66 -25 1z"/>
<path d="M4754 1448 c-73 -48 -192 -174 -258 -273 -76 -114 -135 -240 -187
-395 -38 -115 -40 -129 -30 -168 7 -24 18 -42 26 -42 11 0 13 -8 9 -28 -4 -21
-2 -29 9 -29 11 0 17 17 22 61 27 246 108 486 220 656 41 62 157 182 220 228
46 33 25 26 -31 -10z"/>
<path d="M3345 1347 c-187 -136 -341 -395 -420 -704 -14 -54 -25 -102 -25
-106 0 -5 12 1 26 12 37 29 47 26 39 -10 -5 -24 -4 -30 6 -27 9 3 19 44 30
114 52 343 171 575 379 736 56 44 29 32 -35 -15z"/>
<path d="M4037 1028 c49 -53 92 -123 119 -194 30 -81 64 -222 64 -269 0 -19 5
-37 10 -40 6 -3 10 3 10 14 0 24 10 27 28 9 9 -9 12 -9 12 2 0 39 -48 178 -95
275 -52 106 -143 235 -167 235 -7 0 2 -15 19 -32z"/>
</g>
</svg>
